<svg width="214" height="38" viewBox="0 0 214 38" fill="none" xmlns="http://www.w3.org/2000/svg">
<path d="M4.16193 37L0.184659 0.636363H1.39205L5.08523 35.2244H5.22727L20.2841 0.636363H21.8466L25.3267 35.2244H25.4688L40.7386 0.636363H42.017L25.9659 37H24.3324L20.8523 2.41193H20.7102L5.72443 37H4.16193ZM49.7541 37.5682C47.363 37.5682 45.3803 36.9467 43.8059 35.7038C42.2316 34.4609 41.1307 32.7741 40.5034 30.6435C39.876 28.5128 39.7872 26.1098 40.237 23.4347C40.6868 20.7595 41.5806 18.3565 42.9181 16.2259C44.2557 14.0952 45.8774 12.4084 47.7832 11.1655C49.689 9.92258 51.719 9.30113 53.8734 9.30113C55.4596 9.30113 56.8682 9.64441 58.0993 10.331C59.3422 11.0057 60.3661 11.9408 61.171 13.1364C61.9877 14.3201 62.55 15.6932 62.8578 17.2557C63.1655 18.8063 63.1774 20.4635 62.8933 22.2273L62.6802 23.3636H40.8052L41.0183 22.2273H61.7569C62.112 20.0492 61.9996 18.0724 61.4196 16.2969C60.8514 14.5095 59.9103 13.089 58.5964 12.0355C57.2943 10.9702 55.72 10.4375 53.8734 10.4375C52.0031 10.4375 50.2039 10.9938 48.4757 12.1065C46.7475 13.2192 45.256 14.7344 44.0012 16.652C42.7465 18.5696 41.8942 20.7358 41.4444 23.1506L41.3734 23.2216C40.9709 25.6127 41.0124 27.8085 41.4977 29.8089C41.983 31.8094 42.9181 33.4134 44.3031 34.6207C45.688 35.8281 47.5287 36.4318 49.8251 36.4318C51.4823 36.4318 52.9383 36.1359 54.193 35.544C55.4596 34.9522 56.5131 34.2715 57.3535 33.5021C58.2058 32.7327 58.845 32.0758 59.2711 31.5312L60.0524 32.1705C59.5552 32.857 58.8391 33.6205 57.9039 34.4609C56.9688 35.3014 55.8206 36.0294 54.4593 36.6449C53.0981 37.2604 51.5297 37.5682 49.7541 37.5682Z" fill="#F0953D"/>
<path d="M67.674 6.97514V0.636363H97.5391V6.97514H86.4062V37H78.8068V6.97514H67.674ZM99.4833 37V9.72727H106.816V14.4858H107.1C107.598 12.7931 108.432 11.5147 109.604 10.6506C110.776 9.77462 112.125 9.33665 113.652 9.33665C114.031 9.33665 114.44 9.36032 114.877 9.40767C115.315 9.45502 115.7 9.52012 116.032 9.60298V16.3146C115.676 16.2081 115.185 16.1134 114.558 16.0305C113.931 15.9477 113.356 15.9062 112.836 15.9062C111.723 15.9062 110.729 16.1489 109.853 16.6342C108.989 17.1077 108.302 17.7706 107.793 18.6229C107.296 19.4751 107.047 20.4576 107.047 21.5703V37H99.4833ZM126.938 37.5149C125.198 37.5149 123.647 37.2131 122.286 36.6094C120.925 35.9938 119.848 35.0883 119.055 33.8928C118.273 32.6854 117.883 31.1821 117.883 29.3828C117.883 27.8677 118.161 26.5952 118.717 25.5653C119.273 24.5355 120.031 23.7069 120.99 23.0795C121.949 22.4522 123.038 21.9787 124.257 21.6591C125.488 21.3395 126.778 21.1146 128.128 20.9844C129.714 20.8187 130.992 20.6648 131.963 20.5227C132.934 20.3688 133.638 20.1439 134.076 19.848C134.514 19.5521 134.733 19.1141 134.733 18.5341V18.4276C134.733 17.303 134.378 16.433 133.667 15.8175C132.969 15.2019 131.975 14.8942 130.684 14.8942C129.323 14.8942 128.24 15.196 127.435 15.7997C126.63 16.3916 126.098 17.1373 125.837 18.0369L118.841 17.4688C119.197 15.8116 119.895 14.3793 120.937 13.1719C121.978 11.9527 123.322 11.0175 124.967 10.3665C126.624 9.7036 128.542 9.37216 130.72 9.37216C132.235 9.37216 133.685 9.54972 135.07 9.90483C136.467 10.2599 137.704 10.8104 138.781 11.5561C139.87 12.3018 140.728 13.2607 141.356 14.4325C141.983 15.5926 142.297 16.9834 142.297 18.6051V37H135.123V33.218H134.91C134.472 34.0703 133.886 34.822 133.153 35.473C132.419 36.1122 131.537 36.6153 130.507 36.9822C129.477 37.3374 128.287 37.5149 126.938 37.5149ZM129.104 32.2947C130.217 32.2947 131.199 32.0758 132.052 31.6378C132.904 31.188 133.573 30.5843 134.058 29.8267C134.543 29.0691 134.786 28.2109 134.786 27.2521V24.358C134.549 24.5118 134.224 24.6539 133.809 24.7841C133.407 24.9025 132.951 25.0149 132.442 25.1214C131.933 25.2161 131.424 25.3049 130.915 25.3878C130.406 25.4588 129.945 25.5239 129.53 25.5831C128.643 25.7133 127.867 25.9205 127.204 26.2045C126.541 26.4886 126.027 26.8733 125.66 27.3587C125.293 27.8321 125.109 28.424 125.109 29.1342C125.109 30.1641 125.482 30.9512 126.228 31.4957C126.985 32.0284 127.944 32.2947 129.104 32.2947ZM172.615 9.72727L163.08 37H154.557L145.022 9.72727H153.012L158.676 29.2408H158.96L164.607 9.72727H172.615ZM188.035 37.5327C185.23 37.5327 182.815 36.9645 180.791 35.8281C178.779 34.6799 177.228 33.0582 176.139 30.9631C175.05 28.8561 174.506 26.3643 174.506 23.4879C174.506 20.6825 175.05 18.2204 176.139 16.1016C177.228 13.9827 178.761 12.3314 180.738 11.1477C182.726 9.96401 185.058 9.37216 187.733 9.37216C189.533 9.37216 191.208 9.66217 192.758 10.2422C194.321 10.8104 195.682 11.6686 196.842 12.8168C198.014 13.965 198.925 15.4091 199.577 17.1491C200.228 18.8774 200.553 20.9015 200.553 23.2216V25.299H177.524V20.6115H193.433C193.433 19.5225 193.196 18.5578 192.723 17.7173C192.249 16.8769 191.592 16.2199 190.752 15.7464C189.923 15.2611 188.959 15.0185 187.858 15.0185C186.71 15.0185 185.692 15.2848 184.804 15.8175C183.928 16.3383 183.241 17.0426 182.744 17.9304C182.247 18.8063 181.992 19.7829 181.981 20.8601V25.3168C181.981 26.6662 182.229 27.8321 182.726 28.8146C183.235 29.7971 183.952 30.5547 184.875 31.0874C185.798 31.62 186.893 31.8864 188.16 31.8864C189 31.8864 189.769 31.768 190.468 31.5312C191.166 31.2945 191.764 30.9394 192.261 30.4659C192.758 29.9924 193.137 29.4124 193.398 28.7259L200.393 29.1875C200.038 30.8684 199.31 32.3362 198.209 33.5909C197.12 34.8338 195.712 35.8045 193.983 36.5028C192.267 37.1894 190.284 37.5327 188.035 37.5327ZM213.053 0.636363V37H205.489V0.636363H213.053Z" fill="white"/>
</svg>
